<svg xmlns="http://www.w3.org/2000/svg" viewBox="0 0 500 500"><g id="freepik--Floor--inject-19"><g id="freepik--floor--inject-19"><ellipse id="freepik--floor--inject-19" cx="248.37" cy="334.15" rx="228.54" ry="131.95" style="fill:#f0f0f0"></ellipse></g></g><g id="freepik--Plants--inject-19"><g id="freepik--plants--inject-19"><path d="M62.58,322.72s-.42-13.91-6.38-25.17-14.82-18.73-23.55-20.16-16.5,6.07-7.56,12.4,25.17,13.4,31.12,34.8Z" style="fill:#37474f"></path><path d="M60.3,318.93l.1,0a.48.48,0,0,0,.31-.59c-7.37-23.61-24.23-34.62-32.11-37.14a.47.47,0,1,0-.29.9c7.72,2.47,24.24,13.28,31.5,36.52A.46.46,0,0,0,60.3,318.93Z" style="fill:#fff"></path><path d="M17.26,311.06c.59,1.76,2.35,2.81,4,3.66s3.45,1.77,4.23,3.46c1.56,3.4-1.93,7.65-.22,11A5.84,5.84,0,0,0,29,331.83a38.36,38.36,0,0,0,3.85.71,16.35,16.35,0,0,0,1.85,0A8.38,8.38,0,0,1,40,333.64c2.43,1.68,2.92,5,4.24,7.64a12.25,12.25,0,0,0,8.13,6.24c2.88.65,7.3.41,8.17-.81.67-.92-.76-4-.69-5.17a46.45,46.45,0,0,0-.29-8.74,16.53,16.53,0,0,1-.18-4c.15-1.49.29-3,.42-4.46s.64-2.84.21-4.52a16.75,16.75,0,0,0-2.12-4.46c-.85-1.38-1.71-2.76-2.58-4.12a23.24,23.24,0,0,0-3.5-4.55,12.23,12.23,0,0,0-9.13-3.24c-2.75.2-5.54,1.47-8.31,1.08s-5.29-1.35-8.08-1.42a9.7,9.7,0,0,0-7.87,3.21A5.13,5.13,0,0,0,17.26,311.06Z" style="fill:#455a64"></path><path d="M58.82,339.27h0a.42.42,0,0,0,.35-.48c-4.37-25.92-30.67-32.08-36.94-32.22a.42.42,0,1,0,0,.84c6.14.13,31.86,6.16,36.13,31.52A.42.42,0,0,0,58.82,339.27Z" style="fill:#fff"></path><path d="M30.42,323.68a.4.4,0,0,0,.23-.1,22.27,22.27,0,0,1,18.62-3.4.41.41,0,0,0,.5-.31.41.41,0,0,0-.31-.5,23.1,23.1,0,0,0-19.34,3.57.43.43,0,0,0-.06.59A.44.44,0,0,0,30.42,323.68Z" style="fill:#fff"></path></g></g><g id="freepik--Book--inject-19"><g id="freepik--book--inject-19"><rect x="161.83" y="106.71" width="3.02" height="3.99" style="fill:#FFB53D"></rect><rect x="161.83" y="106.71" width="3.02" height="3.99" style="opacity:0.15"></rect><polygon points="59.83 173.27 302.2 33.34 302.2 212.14 59.83 352.07 59.83 173.27" style="fill:#FFB53D"></polygon><polygon points="59.83 173.27 302.2 33.34 302.2 212.14 59.83 352.07 59.83 173.27" style="opacity:0.15"></polygon><path d="M181,107l3.73,2.2c4.6,2.71,22.57,2.05,34.46-4.81l96.28-55.6-16.82-9.71Z" style="fill:#fff"></path><path d="M315.49,48.8l-96.28,55.59c-11.89,6.88-29.87,7.53-34.46,4.83L181,107V278h0l3.73,2.2c4.61,2.71,22.58,2.05,34.47-4.81l96.22-55.58.06,0Z" style="fill:#fafafa"></path><path d="M315.49,48.8l-96.28,55.59c-11.89,6.88-29.87,7.53-34.46,4.83L181,107V278h0l3.73,2.2c4.61,2.71,22.58,2.05,34.47-4.81l96.28-55.6Z" style="fill:#f5f5f5"></path><path d="M218.18,105c-11.86,6.34-29,6.88-33.43,4.26L181,107V278h0l3.73,2.2c4.48,2.63,21.57,2.08,33.44-4.25Z" style="fill:#ebebeb"></path><path d="M198.57,110.46c-6.27.58-11.61.06-13.82-1.24L181,107V278h0l3.73,2.2c2.23,1.31,7.57,1.83,13.83,1.25Z" style="fill:#e0e0e0"></path><path d="M184.48,109.05c4.6,2.72,3.58,13.38-8.29,20.28L80.31,185.11,63,175.13,181,107Z" style="fill:#fff"></path><polygon points="63.03 175.13 80.31 185.11 80.31 356.14 63.03 346.16 63.03 175.13" style="fill:#e0e0e0"></polygon><path d="M176.19,129.32l-4.29,2.5L80.31,185.11v171l95.88-55.79c8.71-5.06,10.8-9.48,10.83-13.43h0V113.55C187,119.77,183.25,124.93,176.19,129.32Z" style="fill:#f5f5f5"></path><polygon points="56.35 171.22 59.83 173.27 59.83 352.07 56.35 350.06 56.35 171.22" style="fill:#FFB53D"></polygon><polygon points="56.35 171.22 59.83 173.27 59.83 352.07 56.35 350.06 56.35 171.22" style="opacity:0.30000000000000004"></polygon><polygon points="56.35 171.22 298.73 31.29 302.2 33.33 59.83 173.27 56.35 171.22" style="fill:#FFB53D"></polygon><path d="M189.82,92.56a5.42,5.42,0,0,0-4.93,0l-22,12.73c-1.36.78-1.36,2.06,0,2.84l4.9,2.83,27-15.57Z" style="fill:#FFB53D"></path><g style="opacity:0.30000000000000004"><path d="M92,197.27l79.89-46.15,2.25-1.31a4.1,4.1,0,0,0,2-3c0-1-.91-1.28-2-.62l-2.25,1.31L92,193.63a4.09,4.09,0,0,0-2.05,3C90,197.64,90.88,197.92,92,197.27Z"></path><path d="M92,206l79.89-46.15,2.25-1.31a4.1,4.1,0,0,0,2-3c0-1-.91-1.28-2-.62l-2.25,1.31L92,202.37a4.09,4.09,0,0,0-2.05,3C90,206.38,90.88,206.67,92,206Z"></path><path d="M92,214.75,171.9,168.6l2.25-1.31a4.1,4.1,0,0,0,2-3c0-1-.91-1.28-2-.62L171.9,165,92,211.11a4.09,4.09,0,0,0-2.05,3C90,215.12,90.88,215.41,92,214.75Z"></path><path d="M92,223.49l79.89-46.15,2.25-1.31a4.1,4.1,0,0,0,2-3c0-1-.91-1.28-2-.62l-2.25,1.31L92,219.85a4.09,4.09,0,0,0-2.05,3C90,223.86,90.88,224.15,92,223.49Z"></path><path d="M92,232.23l79.89-46.15,2.25-1.31a4.1,4.1,0,0,0,2-3c0-1-.91-1.28-2-.62l-2.25,1.31L92,228.59a4.09,4.09,0,0,0-2.05,3C90,232.6,90.88,232.89,92,232.23Z"></path><path d="M92,241l79.89-46.15,2.25-1.31a4.1,4.1,0,0,0,2-3c0-1-.91-1.28-2-.62l-2.25,1.31L92,237.33a4.09,4.09,0,0,0-2.05,3C90,241.34,90.88,241.63,92,241Z"></path><path d="M92,249.71l79.89-46.15,2.25-1.31a4.11,4.11,0,0,0,2-3c0-1-.91-1.29-2-.63l-2.25,1.31L92,246.07a4.09,4.09,0,0,0-2.05,3C90,250.08,90.88,250.37,92,249.71Z"></path><path d="M92,258.45,171.9,212.3l2.25-1.31a4.11,4.11,0,0,0,2-3c0-1-.91-1.29-2-.63l-2.25,1.31L92,254.81a4.09,4.09,0,0,0-2.05,3C90,258.82,90.88,259.11,92,258.45Z"></path><path d="M92,267.19,171.9,221l2.25-1.31a4.11,4.11,0,0,0,2-3c0-1-.91-1.29-2-.63l-2.25,1.31L92,263.55a4.09,4.09,0,0,0-2.05,3C90,267.56,90.88,267.85,92,267.19Z"></path><path d="M92,275.93l79.89-46.15,2.25-1.31a4.11,4.11,0,0,0,2-3c0-1-.91-1.29-2-.63l-2.25,1.31L92,272.29a4.09,4.09,0,0,0-2.05,3C90,276.3,90.88,276.59,92,275.93Z"></path><path d="M92,284.67l79.89-46.15,2.25-1.31a4.11,4.11,0,0,0,2-3c0-1-.91-1.29-2-.63l-2.25,1.31L92,281A4.09,4.09,0,0,0,90,284C90,285,90.88,285.33,92,284.67Z"></path><path d="M92,293.41l79.89-46.15,2.25-1.31a4.11,4.11,0,0,0,2-3c0-1-.91-1.29-2-.63l-2.25,1.31L92,289.77a4.09,4.09,0,0,0-2.05,3C90,293.78,90.88,294.07,92,293.41Z"></path><path d="M92,302.15,171.9,256l2.25-1.31a4.11,4.11,0,0,0,2-3c0-1-.91-1.29-2-.63l-2.25,1.31L92,298.51a4.1,4.1,0,0,0-2.05,3C90,302.52,90.88,302.81,92,302.15Z"></path><path d="M92,310.89l79.89-46.15,2.25-1.31a4.11,4.11,0,0,0,2-3c0-1-.91-1.29-2-.63l-2.25,1.31L92,307.25a4.1,4.1,0,0,0-2.05,3C90,311.26,90.88,311.55,92,310.89Z"></path><path d="M92,319.63l79.89-46.15,2.25-1.31a4.11,4.11,0,0,0,2-3c0-1-.91-1.29-2-.63l-2.25,1.31L92,316A4.1,4.1,0,0,0,90,319C90,320,90.88,320.29,92,319.63Z"></path><path d="M92,328.37l79.89-46.15,2.25-1.31a4.11,4.11,0,0,0,2-3c0-1-.91-1.29-2-.63l-2.25,1.31L92,324.73a4.1,4.1,0,0,0-2.05,3C90,328.74,90.88,329,92,328.37Z"></path><path d="M92,337.11,171.9,291l2.25-1.31a4.11,4.11,0,0,0,2-3c0-1-.91-1.29-2-.63l-2.25,1.31L92,333.47a4.1,4.1,0,0,0-2.05,3C90,337.48,90.88,337.77,92,337.11Z"></path></g><g style="opacity:0.30000000000000004"><path d="M206.65,125.16c-1.28.29-2.32,1.28-2.32,2.26s1,1.59,2.32,1.29A46.26,46.26,0,0,0,219.21,124l84.14-48.69a4.07,4.07,0,0,0,2-3c0-1-.92-1.24-2-.59l-84.14,48.69A46.28,46.28,0,0,1,206.65,125.16Z"></path><path d="M206.65,133.9c-1.28.3-2.32,1.29-2.32,2.27s1,1.58,2.32,1.29a46.28,46.28,0,0,0,12.56-4.77L303.35,84a4.06,4.06,0,0,0,2-3c0-1-.92-1.25-2-.59l-84.14,48.69A46.26,46.26,0,0,1,206.65,133.9Z"></path><path d="M206.65,142.65a2.76,2.76,0,0,0-2.32,2.27c0,1,1,1.58,2.32,1.28a46.26,46.26,0,0,0,12.56-4.76l84.14-48.69a4.07,4.07,0,0,0,2-3c0-1-.92-1.24-2-.59l-84.14,48.69A46.28,46.28,0,0,1,206.65,142.65Z"></path><path d="M206.65,151.39c-1.28.3-2.32,1.29-2.32,2.27s1,1.58,2.32,1.29a46.59,46.59,0,0,0,12.56-4.76l84.14-48.7a4.06,4.06,0,0,0,2-3c0-1-.92-1.25-2-.59l-84.14,48.69A46.26,46.26,0,0,1,206.65,151.39Z"></path><path d="M206.65,160.14a2.76,2.76,0,0,0-2.32,2.27c0,1,1,1.58,2.32,1.28a46.26,46.26,0,0,0,12.56-4.76l84.14-48.69a4.07,4.07,0,0,0,2-3c0-1-.92-1.24-2-.59l-84.14,48.69A46.28,46.28,0,0,1,206.65,160.14Z"></path><path d="M206.65,168.88c-1.28.3-2.32,1.29-2.32,2.27s1,1.59,2.32,1.29a46.59,46.59,0,0,0,12.56-4.76L303.35,119a4.06,4.06,0,0,0,2-3c0-1-.92-1.25-2-.59l-84.14,48.69A46.26,46.26,0,0,1,206.65,168.88Z"></path><path d="M206.65,177.63a2.76,2.76,0,0,0-2.32,2.27c0,1,1,1.58,2.32,1.28a46.26,46.26,0,0,0,12.56-4.76l84.14-48.69a4.07,4.07,0,0,0,2-3c0-1-.92-1.24-2-.59l-84.14,48.69A46.28,46.28,0,0,1,206.65,177.63Z"></path><path d="M206.65,186.37c-1.28.3-2.32,1.29-2.32,2.27s1,1.59,2.32,1.29a46.59,46.59,0,0,0,12.56-4.76l84.14-48.69a4.09,4.09,0,0,0,2-3c0-1-.92-1.25-2-.59l-84.14,48.69A46.26,46.26,0,0,1,206.65,186.37Z"></path><path d="M206.65,195.12a2.76,2.76,0,0,0-2.32,2.27c0,1,1,1.58,2.32,1.28a46.26,46.26,0,0,0,12.56-4.76l84.14-48.69a4.06,4.06,0,0,0,2-3c0-1-.92-1.24-2-.59l-84.14,48.69A46.28,46.28,0,0,1,206.65,195.12Z"></path><path d="M206.65,203.86c-1.28.3-2.32,1.29-2.32,2.27s1,1.59,2.32,1.29a46.59,46.59,0,0,0,12.56-4.76L303.35,154a4.09,4.09,0,0,0,2-3c0-1-.92-1.25-2-.59L219.21,199.1A46.26,46.26,0,0,1,206.65,203.86Z"></path><path d="M206.65,212.61a2.76,2.76,0,0,0-2.32,2.27c0,1,1,1.58,2.32,1.28a45.94,45.94,0,0,0,12.56-4.76l84.14-48.69a4.06,4.06,0,0,0,2-3c0-1-.92-1.25-2-.6l-84.14,48.69A46.28,46.28,0,0,1,206.65,212.61Z"></path><path d="M206.65,221.35c-1.28.3-2.32,1.29-2.32,2.27s1,1.59,2.32,1.29a46.59,46.59,0,0,0,12.56-4.76l84.14-48.69a4.09,4.09,0,0,0,2-3c0-1-.92-1.25-2-.59l-84.14,48.69A46.26,46.26,0,0,1,206.65,221.35Z"></path><path d="M206.65,230.1c-1.28.3-2.32,1.29-2.32,2.27s1,1.58,2.32,1.29a46.28,46.28,0,0,0,12.56-4.77l84.14-48.69a4.06,4.06,0,0,0,2-3c0-1-.92-1.25-2-.6l-84.14,48.7A46.59,46.59,0,0,1,206.65,230.1Z"></path><path d="M206.65,238.84c-1.28.3-2.32,1.29-2.32,2.27s1,1.59,2.32,1.29a46.59,46.59,0,0,0,12.56-4.76L303.35,189a4.09,4.09,0,0,0,2-3c0-1-.92-1.25-2-.59l-84.14,48.69A46.26,46.26,0,0,1,206.65,238.84Z"></path><path d="M206.65,247.59c-1.28.3-2.32,1.29-2.32,2.27s1,1.58,2.32,1.29a46.28,46.28,0,0,0,12.56-4.77l84.14-48.69a4.06,4.06,0,0,0,2-3c0-1-.92-1.25-2-.59l-84.14,48.69A46.59,46.59,0,0,1,206.65,247.59Z"></path><path d="M206.65,256.33c-1.28.3-2.32,1.29-2.32,2.27s1,1.59,2.32,1.29a46.26,46.26,0,0,0,12.56-4.76l84.14-48.69a4.09,4.09,0,0,0,2-3c0-1-.92-1.25-2-.59l-84.14,48.69A46.26,46.26,0,0,1,206.65,256.33Z"></path><path d="M206.65,265.08c-1.28.3-2.32,1.29-2.32,2.27s1,1.58,2.32,1.29a46.28,46.28,0,0,0,12.56-4.77l84.14-48.69a4.06,4.06,0,0,0,2-3c0-1-.92-1.25-2-.59l-84.14,48.69A46.59,46.59,0,0,1,206.65,265.08Z"></path></g><polygon points="76.5 183.02 90.3 174.02 75.3 182.21 75.3 199.15 76.5 183.02" style="opacity:0.2"></polygon><polygon points="67.91 177.93 94.84 162.38 69.15 178.67 67.91 212.91 67.91 177.93" style="opacity:0.2"></polygon><polygon points="76.5 353.94 75.99 327.49 74.68 352.89 76.5 353.94" style="opacity:0.2"></polygon><polygon points="69.76 350.01 68.78 310.61 68.15 349.12 69.76 350.01" style="opacity:0.2"></polygon><polygon points="290.69 57.81 310 45.65 311.43 46.47 290.69 57.81" style="opacity:0.2"></polygon><polygon points="304.87 42.67 271.74 62.41 305.93 43.28 304.87 42.67" style="opacity:0.2"></polygon><polygon points="87.18 273.55 87.18 280.23 179.65 226.84 179.65 220.16 87.18 273.55" style="fill:#FFB53D;opacity:0.30000000000000004"></polygon><polygon points="87.18 282.16 87.18 288.84 179.65 235.44 179.65 228.77 87.18 282.16" style="fill:#FFB53D;opacity:0.30000000000000004"></polygon><polygon points="87.18 291.22 87.18 297.89 179.65 244.5 179.65 237.83 87.18 291.22" style="fill:#FFB53D;opacity:0.30000000000000004"></polygon><polygon points="87.18 299.96 87.18 306.63 138.11 276.89 138.11 270.22 87.18 299.96" style="fill:#FFB53D;opacity:0.30000000000000004"></polygon><polygon points="233.59 189.02 306.8 146.75 306.8 153.43 233.59 196.26 233.59 189.02" style="fill:#FFB53D;opacity:0.30000000000000004"></polygon><path d="M218.18,206.82,306.8,155.7v6.68l-88.62,51.68c-4.48,2.75-9.88,4-15.65,4.76v-7.18A39.4,39.4,0,0,0,218.18,206.82Z" style="fill:#FFB53D;opacity:0.30000000000000004"></path><path d="M218.18,215.25l88.62-51.12v6.68l-88.62,51.68c-4.48,2.75-9.88,4-15.65,4.76v-7.18A39.24,39.24,0,0,0,218.18,215.25Z" style="fill:#FFB53D;opacity:0.30000000000000004"></path><path d="M218.18,223.68l88.62-51.11v6.67l-88.62,51.69c-4.48,2.74-9.88,4-15.65,4.76V228.5A39.24,39.24,0,0,0,218.18,223.68Z" style="fill:#FFB53D;opacity:0.30000000000000004"></path><polygon points="87.18 194.96 87.18 201.63 179.65 148.24 179.65 141.57 87.18 194.96" style="fill:#FFB53D;opacity:0.30000000000000004"></polygon><polygon points="87.18 203.57 87.18 210.24 179.65 156.85 179.65 150.18 87.18 203.57" style="fill:#FFB53D;opacity:0.30000000000000004"></polygon></g></g><g id="freepik--Note--inject-19"><g id="freepik--note--inject-19"><polygon points="261.58 104.04 261.58 169.07 315.45 137.97 315.45 72.94 261.58 104.04" style="opacity:0.1"></polygon><path d="M328.91,134.35s-2.62,4.45-12,9.88l-47.45,27.4-5.69-56.53L317.61,84l3.55,38.51C321.65,127.84,323.72,133.51,328.91,134.35Z" style="fill:#455a64"></path><polygon points="317.62 84 263.75 115.1 263.74 105.12 317.62 74.02 317.62 84" style="fill:#37474f"></polygon><path d="M312.09,103c-.77.8-2.2,1.83-3.15.7l-.05-.07a5.23,5.23,0,0,0,.61-3.73c-.08-.3-.61-.87-.95-.52a3.79,3.79,0,0,0-.92,3.85,11.71,11.71,0,0,1-2.07,2.45A4.14,4.14,0,0,1,303,107c-1.2,0-1-1.88-1-2.71,0-.37-.74-1.16-1-.6a21.7,21.7,0,0,1-2.53,3.9,12.4,12.4,0,0,1-1.8,2,2.58,2.58,0,0,1-.67.46h0a1.29,1.29,0,0,1-.05-.29c0-.48-.75-1.14-1.05-.48-.61,1.34-1.59,4.45-3.31,4.82-.53.11-1-.32-1.51-.32a1.55,1.55,0,0,0-1.11.48,15.3,15.3,0,0,0-1.68,2.44c-.22.3-.61,1-1,1.11-.55.17-.57-.86-.66-1.31s-.49-.81-.86-.56a4.82,4.82,0,0,0-1.59,2.17,3.79,3.79,0,0,1-.38-1.44c0-.33-.63-.92-.91-.49A20.86,20.86,0,0,1,278.6,120c-.81.75-3.15,3-4.29,1.71a2.63,2.63,0,0,1-.56-1.87,8.05,8.05,0,0,0,2.61-2.71,14.23,14.23,0,0,0,2.2-6.19c0-.25-.2-.61-.47-.6-1.55,0-2.64,2.14-3.25,3.31a15.1,15.1,0,0,0-1.94,5.74v.17a3.05,3.05,0,0,1-1.6.19c-.23,0-.22.49,0,.53a3.27,3.27,0,0,0,1.62-.08,3.22,3.22,0,0,0,1.73,2.81c1.46.55,3.07-.72,4.1-1.6a21.24,21.24,0,0,0,3.31-3.52,3.8,3.8,0,0,0,1,1.61c.23.21.62.31.76-.06a6.05,6.05,0,0,1,1-1.93c.28.89.81,1.78,1.79,1.49,1.13-.33,1.88-2,2.46-2.89.31-.46.65-1.2,1.3-1.18s1.08.55,1.91.2c1.58-.67,2.42-2.53,3.12-4.16a1,1,0,0,0,.59.27c.79.1,1.52-.71,2-1.22a22.85,22.85,0,0,0,3.07-4,2.68,2.68,0,0,0,1.21,1.8c1.05.62,2.28.09,3.2-.52a11,11,0,0,0,2.87-2.89c1.42,1.58,3.35.78,4.59-.65C313.34,103.38,312.54,102.48,312.09,103Zm-37.2,13a18.61,18.61,0,0,1,1.42-2.82,4.78,4.78,0,0,1,1.41-1.61,14.71,14.71,0,0,1-1.84,5,8.35,8.35,0,0,1-2,2.51A16.09,16.09,0,0,1,274.89,115.92Z" style="fill:#fafafa"></path><path d="M290.21,142.73c4.9-3,8.69-7.84,11.45-12.84s5.16-11.08,4-16.82c-.07-.34-.77-.76-.8-.19a36.68,36.68,0,0,1-4.77,16.23,35.79,35.79,0,0,1-9,10.85l.39-1.06a19.52,19.52,0,0,0,.76-2.79c.08-.43.16-.86.2-1.29a6.34,6.34,0,0,0-.13-1.5.54.54,0,0,0-.41-.46c-.29,0-.21.2-.32.35a3.66,3.66,0,0,0-.47,1.37c-.1.41-.22.82-.34,1.23-.27.85-.55,1.7-.87,2.54-.64,1.71-1.42,3.35-2.2,5-.26.58.34,1.2.91,1.2a14.35,14.35,0,0,0,5.52-1.14c.84-.33,1.66-.7,2.47-1.09A18.43,18.43,0,0,0,299,141.1c.76-.5-.36-1.5-1-1.29-1.58.51-3,1.44-4.56,2.08a15.2,15.2,0,0,1-3.48,1l0-.07A.72.72,0,0,0,290.21,142.73Z" style="fill:#fafafa"></path></g></g></svg>